# xmcd CD database file
#
# Track frame offsets:
#	150
#	19692
#	35411
#	55499
#	67280
#
# Disc length: 1084 seconds
#
# Revision: 1
# Processed by: cddbd v1.5.2PL0 Copyright (c) Steve Scherf et al.
# Submitted via: CDex 1.51
#
DISCID=44043a05
DTITLE=Mavericks - Suited Up and Ready
DYEAR=2012
DGENRE=Country
TTITLE0=Back In Your Arms Again
TTITLE1=Born To Be Blue
TTITLE2=Come Unto
TTITLE3=Amsterdam Moon
TTITLE4=That's Not My Name
EXTD=YEAR: 2012
EXTT0=
EXTT1=
EXTT2=
EXTT3=
EXTT4=
PLAYORDER=
